<mxfile host="Electron" modified="2023-12-03T16:04:44.535Z" agent="Mozilla/5.0 (Windows NT 10.0; Win64; x64) AppleWebKit/537.36 (KHTML, like Gecko) draw.io/22.0.3 Chrome/114.0.5735.289 Electron/25.8.4 Safari/537.36" etag="e2uVlTEvEF9WjPeipND0" version="22.0.3" type="device">
  <diagram id="C5RBs43oDa-KdzZeNtuy" name="Page-1">
    <mxGraphModel dx="2877" dy="3022" grid="1" gridSize="10" guides="1" tooltips="1" connect="1" arrows="1" fold="1" page="1" pageScale="1" pageWidth="827" pageHeight="1169" math="0" shadow="0">
      <root>
        <mxCell id="WIyWlLk6GJQsqaUBKTNV-0" />
        <mxCell id="WIyWlLk6GJQsqaUBKTNV-1" parent="WIyWlLk6GJQsqaUBKTNV-0" />
        <mxCell id="jaS103z9ZxJK8VQjzJih-0" style="edgeStyle=orthogonalEdgeStyle;rounded=0;orthogonalLoop=1;jettySize=auto;html=1;" parent="WIyWlLk6GJQsqaUBKTNV-1" source="jaS103z9ZxJK8VQjzJih-1" target="jaS103z9ZxJK8VQjzJih-5" edge="1">
          <mxGeometry relative="1" as="geometry" />
        </mxCell>
        <mxCell id="jaS103z9ZxJK8VQjzJih-1" value="start" style="ellipse;whiteSpace=wrap;html=1;" parent="WIyWlLk6GJQsqaUBKTNV-1" vertex="1">
          <mxGeometry x="30" y="360" width="120" height="80" as="geometry" />
        </mxCell>
        <mxCell id="jaS103z9ZxJK8VQjzJih-24" value="" style="edgeStyle=orthogonalEdgeStyle;rounded=0;orthogonalLoop=1;jettySize=auto;html=1;" parent="WIyWlLk6GJQsqaUBKTNV-1" source="jaS103z9ZxJK8VQjzJih-5" target="jaS103z9ZxJK8VQjzJih-23" edge="1">
          <mxGeometry relative="1" as="geometry" />
        </mxCell>
        <mxCell id="jaS103z9ZxJK8VQjzJih-5" value="&lt;div&gt;struct SinhVien sv[100];&lt;/div&gt;&lt;div&gt;&amp;nbsp; &amp;nbsp; int n = 0;&lt;/div&gt;&lt;div&gt;&amp;nbsp; &amp;nbsp; int choice;&lt;/div&gt;&lt;div&gt;&amp;nbsp; &amp;nbsp; int i;&lt;/div&gt;" style="shape=parallelogram;perimeter=parallelogramPerimeter;whiteSpace=wrap;html=1;fixedSize=1;" parent="WIyWlLk6GJQsqaUBKTNV-1" vertex="1">
          <mxGeometry x="10" y="490" width="160" height="60" as="geometry" />
        </mxCell>
        <mxCell id="jaS103z9ZxJK8VQjzJih-7" value="" style="edgeStyle=orthogonalEdgeStyle;rounded=0;orthogonalLoop=1;jettySize=auto;html=1;" parent="WIyWlLk6GJQsqaUBKTNV-1" source="jaS103z9ZxJK8VQjzJih-8" target="jaS103z9ZxJK8VQjzJih-10" edge="1">
          <mxGeometry relative="1" as="geometry" />
        </mxCell>
        <mxCell id="jaS103z9ZxJK8VQjzJih-8" value="start" style="ellipse;whiteSpace=wrap;html=1;" parent="WIyWlLk6GJQsqaUBKTNV-1" vertex="1">
          <mxGeometry x="90" y="-160" width="120" height="80" as="geometry" />
        </mxCell>
        <mxCell id="jaS103z9ZxJK8VQjzJih-9" value="" style="edgeStyle=orthogonalEdgeStyle;rounded=0;orthogonalLoop=1;jettySize=auto;html=1;" parent="WIyWlLk6GJQsqaUBKTNV-1" source="jaS103z9ZxJK8VQjzJih-10" target="jaS103z9ZxJK8VQjzJih-11" edge="1">
          <mxGeometry relative="1" as="geometry" />
        </mxCell>
        <mxCell id="jaS103z9ZxJK8VQjzJih-10" value="struct SinhVien" style="shape=parallelogram;perimeter=parallelogramPerimeter;whiteSpace=wrap;html=1;fixedSize=1;" parent="WIyWlLk6GJQsqaUBKTNV-1" vertex="1">
          <mxGeometry x="294" y="-150" width="120" height="60" as="geometry" />
        </mxCell>
        <mxCell id="jaS103z9ZxJK8VQjzJih-11" value="&lt;div style=&quot;color: rgb(204, 204, 204); background-color: rgb(31, 31, 31); font-family: Consolas, &amp;quot;Courier New&amp;quot;, monospace; font-size: 14px; line-height: 19px;&quot;&gt;&lt;div&gt;char &lt;span style=&quot;color: #9cdcfe;&quot;&gt;name&lt;/span&gt;[&lt;span style=&quot;color: #b5cea8;&quot;&gt;20&lt;/span&gt;];&lt;/div&gt;&lt;div&gt;&lt;span style=&quot;color: rgb(86, 156, 214);&quot;&gt;int&lt;/span&gt; &lt;span style=&quot;color: rgb(156, 220, 254);&quot;&gt;old&lt;/span&gt;;&lt;/div&gt;&lt;div&gt;&amp;nbsp; &amp;nbsp; &lt;span style=&quot;color: #569cd6;&quot;&gt;int&lt;/span&gt; &lt;span style=&quot;color: #9cdcfe;&quot;&gt;phoneNumber&lt;/span&gt;;&lt;/div&gt;&lt;div&gt;&amp;nbsp; &amp;nbsp; &lt;span style=&quot;color: #569cd6;&quot;&gt;char&lt;/span&gt; &lt;span style=&quot;color: #9cdcfe;&quot;&gt;email&lt;/span&gt;[&lt;span style=&quot;color: #b5cea8;&quot;&gt;50&lt;/span&gt;];&lt;/div&gt;&lt;/div&gt;" style="rounded=0;whiteSpace=wrap;html=1;" parent="WIyWlLk6GJQsqaUBKTNV-1" vertex="1">
          <mxGeometry x="520" y="-190" width="170" height="140" as="geometry" />
        </mxCell>
        <mxCell id="jaS103z9ZxJK8VQjzJih-12" style="edgeStyle=orthogonalEdgeStyle;rounded=0;orthogonalLoop=1;jettySize=auto;html=1;" parent="WIyWlLk6GJQsqaUBKTNV-1" source="jaS103z9ZxJK8VQjzJih-13" target="jaS103z9ZxJK8VQjzJih-15" edge="1">
          <mxGeometry relative="1" as="geometry" />
        </mxCell>
        <mxCell id="jaS103z9ZxJK8VQjzJih-13" value="start" style="ellipse;whiteSpace=wrap;html=1;" parent="WIyWlLk6GJQsqaUBKTNV-1" vertex="1">
          <mxGeometry x="100" width="120" height="80" as="geometry" />
        </mxCell>
        <mxCell id="jaS103z9ZxJK8VQjzJih-14" style="edgeStyle=orthogonalEdgeStyle;rounded=0;orthogonalLoop=1;jettySize=auto;html=1;" parent="WIyWlLk6GJQsqaUBKTNV-1" source="jaS103z9ZxJK8VQjzJih-15" target="YEtJsHtN-afF1f-3Utvz-12" edge="1">
          <mxGeometry relative="1" as="geometry">
            <mxPoint x="700" y="40" as="targetPoint" />
          </mxGeometry>
        </mxCell>
        <mxCell id="jaS103z9ZxJK8VQjzJih-15" value="&lt;div style=&quot;color: rgb(204, 204, 204); background-color: rgb(31, 31, 31); font-family: Consolas, &amp;quot;Courier New&amp;quot;, monospace; font-size: 14px; line-height: 19px;&quot;&gt;input(&lt;span style=&quot;color: #4ec9b0;&quot;&gt;sv&lt;/span&gt; &lt;span style=&quot;color: #d4d4d4;&quot;&gt;*&lt;/span&gt;&lt;span style=&quot;color: #9cdcfe;&quot;&gt;a&lt;/span&gt;, &lt;span style=&quot;color: #569cd6;&quot;&gt;int&lt;/span&gt; &lt;span style=&quot;color: #9cdcfe;&quot;&gt;i&lt;/span&gt;)&lt;/div&gt;" style="rounded=0;whiteSpace=wrap;html=1;shape=label;fixedSize=1;" parent="WIyWlLk6GJQsqaUBKTNV-1" vertex="1">
          <mxGeometry x="290" y="10" width="270" height="60" as="geometry" />
        </mxCell>
        <mxCell id="jaS103z9ZxJK8VQjzJih-17" style="edgeStyle=orthogonalEdgeStyle;rounded=0;orthogonalLoop=1;jettySize=auto;html=1;" parent="WIyWlLk6GJQsqaUBKTNV-1" source="jaS103z9ZxJK8VQjzJih-18" target="jaS103z9ZxJK8VQjzJih-20" edge="1">
          <mxGeometry relative="1" as="geometry" />
        </mxCell>
        <mxCell id="jaS103z9ZxJK8VQjzJih-18" value="start" style="ellipse;whiteSpace=wrap;html=1;" parent="WIyWlLk6GJQsqaUBKTNV-1" vertex="1">
          <mxGeometry x="100" y="160" width="120" height="80" as="geometry" />
        </mxCell>
        <mxCell id="jaS103z9ZxJK8VQjzJih-19" style="edgeStyle=orthogonalEdgeStyle;rounded=0;orthogonalLoop=1;jettySize=auto;html=1;" parent="WIyWlLk6GJQsqaUBKTNV-1" source="jaS103z9ZxJK8VQjzJih-20" edge="1">
          <mxGeometry relative="1" as="geometry">
            <mxPoint x="700" y="200" as="targetPoint" />
          </mxGeometry>
        </mxCell>
        <mxCell id="jaS103z9ZxJK8VQjzJih-20" value="&lt;div style=&quot;color: rgb(204, 204, 204); background-color: rgb(31, 31, 31); font-family: Consolas, &amp;quot;Courier New&amp;quot;, monospace; font-size: 14px; line-height: 19px;&quot;&gt;output(&lt;span style=&quot;color: #4ec9b0;&quot;&gt;sv&lt;/span&gt; &lt;span style=&quot;color: #d4d4d4;&quot;&gt;*&lt;/span&gt;&lt;span style=&quot;color: #9cdcfe;&quot;&gt;a&lt;/span&gt;, &lt;span style=&quot;color: #569cd6;&quot;&gt;int&lt;/span&gt; &lt;span style=&quot;color: #9cdcfe;&quot;&gt;i&lt;/span&gt;)&lt;/div&gt;" style="rounded=0;whiteSpace=wrap;html=1;shape=label;fixedSize=1;" parent="WIyWlLk6GJQsqaUBKTNV-1" vertex="1">
          <mxGeometry x="290" y="170" width="270" height="60" as="geometry" />
        </mxCell>
        <mxCell id="jaS103z9ZxJK8VQjzJih-26" value="" style="edgeStyle=orthogonalEdgeStyle;rounded=0;orthogonalLoop=1;jettySize=auto;html=1;" parent="WIyWlLk6GJQsqaUBKTNV-1" source="jaS103z9ZxJK8VQjzJih-23" target="jaS103z9ZxJK8VQjzJih-25" edge="1">
          <mxGeometry relative="1" as="geometry" />
        </mxCell>
        <mxCell id="jaS103z9ZxJK8VQjzJih-23" value="&amp;nbsp;choice" style="rounded=0;whiteSpace=wrap;html=1;" parent="WIyWlLk6GJQsqaUBKTNV-1" vertex="1">
          <mxGeometry x="30" y="610" width="120" height="60" as="geometry" />
        </mxCell>
        <mxCell id="jaS103z9ZxJK8VQjzJih-28" style="edgeStyle=orthogonalEdgeStyle;rounded=0;orthogonalLoop=1;jettySize=auto;html=1;" parent="WIyWlLk6GJQsqaUBKTNV-1" source="jaS103z9ZxJK8VQjzJih-25" target="jaS103z9ZxJK8VQjzJih-27" edge="1">
          <mxGeometry relative="1" as="geometry" />
        </mxCell>
        <mxCell id="jaS103z9ZxJK8VQjzJih-31" value="true" style="edgeLabel;html=1;align=center;verticalAlign=middle;resizable=0;points=[];" parent="jaS103z9ZxJK8VQjzJih-28" vertex="1" connectable="0">
          <mxGeometry x="-0.0556" y="-1" relative="1" as="geometry">
            <mxPoint x="1" as="offset" />
          </mxGeometry>
        </mxCell>
        <mxCell id="jaS103z9ZxJK8VQjzJih-32" value="" style="edgeStyle=orthogonalEdgeStyle;rounded=0;orthogonalLoop=1;jettySize=auto;html=1;" parent="WIyWlLk6GJQsqaUBKTNV-1" source="jaS103z9ZxJK8VQjzJih-25" target="jaS103z9ZxJK8VQjzJih-30" edge="1">
          <mxGeometry relative="1" as="geometry" />
        </mxCell>
        <mxCell id="jaS103z9ZxJK8VQjzJih-33" value="false" style="edgeLabel;html=1;align=center;verticalAlign=middle;resizable=0;points=[];" parent="jaS103z9ZxJK8VQjzJih-32" vertex="1" connectable="0">
          <mxGeometry x="-0.3125" y="3" relative="1" as="geometry">
            <mxPoint as="offset" />
          </mxGeometry>
        </mxCell>
        <mxCell id="jaS103z9ZxJK8VQjzJih-25" value="choice==1" style="rhombus;whiteSpace=wrap;html=1;" parent="WIyWlLk6GJQsqaUBKTNV-1" vertex="1">
          <mxGeometry x="50" y="720" width="80" height="80" as="geometry" />
        </mxCell>
        <mxCell id="jaS103z9ZxJK8VQjzJih-29" style="edgeStyle=orthogonalEdgeStyle;rounded=0;orthogonalLoop=1;jettySize=auto;html=1;" parent="WIyWlLk6GJQsqaUBKTNV-1" source="jaS103z9ZxJK8VQjzJih-27" edge="1">
          <mxGeometry relative="1" as="geometry">
            <mxPoint x="90" y="580" as="targetPoint" />
            <Array as="points">
              <mxPoint x="680" y="760" />
              <mxPoint x="680" y="580" />
            </Array>
          </mxGeometry>
        </mxCell>
        <mxCell id="jaS103z9ZxJK8VQjzJih-27" value="&lt;div style=&quot;color: rgb(204, 204, 204); background-color: rgb(31, 31, 31); font-family: Consolas, &amp;quot;Courier New&amp;quot;, monospace; font-size: 14px; line-height: 19px;&quot;&gt;&lt;div&gt;&amp;nbsp; input(&lt;span style=&quot;color: #9cdcfe;&quot;&gt;student&lt;/span&gt;,&lt;span style=&quot;color: #9cdcfe;&quot;&gt;currentIndex&lt;/span&gt;);&amp;nbsp; &amp;nbsp; &amp;nbsp;&lt;span style=&quot;color: rgb(156, 220, 254);&quot;&gt;currentIndex&lt;/span&gt;&lt;span style=&quot;color: rgb(212, 212, 212);&quot;&gt;++&lt;/span&gt;;&lt;/div&gt;&lt;/div&gt;" style="rounded=0;whiteSpace=wrap;html=1;" parent="WIyWlLk6GJQsqaUBKTNV-1" vertex="1">
          <mxGeometry x="230" y="725" width="260" height="70" as="geometry" />
        </mxCell>
        <mxCell id="jaS103z9ZxJK8VQjzJih-35" style="edgeStyle=orthogonalEdgeStyle;rounded=0;orthogonalLoop=1;jettySize=auto;html=1;entryX=0;entryY=0.5;entryDx=0;entryDy=0;" parent="WIyWlLk6GJQsqaUBKTNV-1" source="jaS103z9ZxJK8VQjzJih-30" target="YEtJsHtN-afF1f-3Utvz-1" edge="1">
          <mxGeometry relative="1" as="geometry">
            <mxPoint x="230" y="920" as="targetPoint" />
          </mxGeometry>
        </mxCell>
        <mxCell id="jaS103z9ZxJK8VQjzJih-37" value="true" style="edgeLabel;html=1;align=center;verticalAlign=middle;resizable=0;points=[];" parent="jaS103z9ZxJK8VQjzJih-35" vertex="1" connectable="0">
          <mxGeometry x="-0.15" y="-2" relative="1" as="geometry">
            <mxPoint as="offset" />
          </mxGeometry>
        </mxCell>
        <mxCell id="jaS103z9ZxJK8VQjzJih-39" value="" style="edgeStyle=orthogonalEdgeStyle;rounded=0;orthogonalLoop=1;jettySize=auto;html=1;" parent="WIyWlLk6GJQsqaUBKTNV-1" source="jaS103z9ZxJK8VQjzJih-30" target="jaS103z9ZxJK8VQjzJih-38" edge="1">
          <mxGeometry relative="1" as="geometry" />
        </mxCell>
        <mxCell id="jaS103z9ZxJK8VQjzJih-30" value="choice==2" style="rhombus;whiteSpace=wrap;html=1;" parent="WIyWlLk6GJQsqaUBKTNV-1" vertex="1">
          <mxGeometry x="50" y="880" width="80" height="80" as="geometry" />
        </mxCell>
        <mxCell id="jaS103z9ZxJK8VQjzJih-41" value="" style="edgeStyle=orthogonalEdgeStyle;rounded=0;orthogonalLoop=1;jettySize=auto;html=1;" parent="WIyWlLk6GJQsqaUBKTNV-1" source="jaS103z9ZxJK8VQjzJih-38" edge="1">
          <mxGeometry relative="1" as="geometry">
            <mxPoint x="230" y="1080" as="targetPoint" />
          </mxGeometry>
        </mxCell>
        <mxCell id="jaS103z9ZxJK8VQjzJih-53" style="edgeStyle=orthogonalEdgeStyle;rounded=0;orthogonalLoop=1;jettySize=auto;html=1;" parent="WIyWlLk6GJQsqaUBKTNV-1" source="jaS103z9ZxJK8VQjzJih-38" target="jaS103z9ZxJK8VQjzJih-52" edge="1">
          <mxGeometry relative="1" as="geometry" />
        </mxCell>
        <mxCell id="jaS103z9ZxJK8VQjzJih-38" value="choice==3" style="rhombus;whiteSpace=wrap;html=1;" parent="WIyWlLk6GJQsqaUBKTNV-1" vertex="1">
          <mxGeometry x="50" y="1040" width="80" height="80" as="geometry" />
        </mxCell>
        <mxCell id="jaS103z9ZxJK8VQjzJih-55" value="" style="edgeStyle=orthogonalEdgeStyle;rounded=0;orthogonalLoop=1;jettySize=auto;html=1;entryX=0;entryY=0.5;entryDx=0;entryDy=0;" parent="WIyWlLk6GJQsqaUBKTNV-1" source="jaS103z9ZxJK8VQjzJih-52" target="YEtJsHtN-afF1f-3Utvz-19" edge="1">
          <mxGeometry relative="1" as="geometry">
            <mxPoint x="190" y="1409.9999999999995" as="targetPoint" />
          </mxGeometry>
        </mxCell>
        <mxCell id="jaS103z9ZxJK8VQjzJih-74" style="edgeStyle=orthogonalEdgeStyle;rounded=0;orthogonalLoop=1;jettySize=auto;html=1;" parent="WIyWlLk6GJQsqaUBKTNV-1" source="jaS103z9ZxJK8VQjzJih-52" target="jaS103z9ZxJK8VQjzJih-73" edge="1">
          <mxGeometry relative="1" as="geometry" />
        </mxCell>
        <mxCell id="jaS103z9ZxJK8VQjzJih-52" value="choice==4" style="rhombus;whiteSpace=wrap;html=1;" parent="WIyWlLk6GJQsqaUBKTNV-1" vertex="1">
          <mxGeometry x="50" y="1370" width="80" height="80" as="geometry" />
        </mxCell>
        <mxCell id="jaS103z9ZxJK8VQjzJih-61" style="edgeStyle=orthogonalEdgeStyle;rounded=0;orthogonalLoop=1;jettySize=auto;html=1;" parent="WIyWlLk6GJQsqaUBKTNV-1" edge="1">
          <mxGeometry relative="1" as="geometry">
            <mxPoint x="90" y="580" as="targetPoint" />
            <Array as="points">
              <mxPoint x="680" y="1410" />
              <mxPoint x="680" y="580" />
            </Array>
            <mxPoint x="680" y="1780" as="sourcePoint" />
          </mxGeometry>
        </mxCell>
        <mxCell id="jaS103z9ZxJK8VQjzJih-77" value="" style="edgeStyle=orthogonalEdgeStyle;rounded=0;orthogonalLoop=1;jettySize=auto;html=1;" parent="WIyWlLk6GJQsqaUBKTNV-1" source="jaS103z9ZxJK8VQjzJih-73" edge="1">
          <mxGeometry relative="1" as="geometry">
            <mxPoint x="230" y="1910" as="targetPoint" />
          </mxGeometry>
        </mxCell>
        <mxCell id="jaS103z9ZxJK8VQjzJih-88" style="edgeStyle=orthogonalEdgeStyle;rounded=0;orthogonalLoop=1;jettySize=auto;html=1;" parent="WIyWlLk6GJQsqaUBKTNV-1" source="jaS103z9ZxJK8VQjzJih-73" edge="1">
          <mxGeometry relative="1" as="geometry">
            <mxPoint x="90" y="2020" as="targetPoint" />
          </mxGeometry>
        </mxCell>
        <mxCell id="jaS103z9ZxJK8VQjzJih-73" value="choice==5" style="rhombus;whiteSpace=wrap;html=1;" parent="WIyWlLk6GJQsqaUBKTNV-1" vertex="1">
          <mxGeometry x="50" y="1870" width="80" height="80" as="geometry" />
        </mxCell>
        <mxCell id="jaS103z9ZxJK8VQjzJih-91" value="end" style="ellipse;whiteSpace=wrap;html=1;" parent="WIyWlLk6GJQsqaUBKTNV-1" vertex="1">
          <mxGeometry x="230" y="1870" width="120" height="80" as="geometry" />
        </mxCell>
        <mxCell id="YEtJsHtN-afF1f-3Utvz-17" style="edgeStyle=orthogonalEdgeStyle;rounded=0;orthogonalLoop=1;jettySize=auto;html=1;" edge="1" parent="WIyWlLk6GJQsqaUBKTNV-1" source="jaS103z9ZxJK8VQjzJih-93">
          <mxGeometry relative="1" as="geometry">
            <mxPoint x="680" y="1719.9999999999995" as="targetPoint" />
          </mxGeometry>
        </mxCell>
        <mxCell id="jaS103z9ZxJK8VQjzJih-93" value="nhap lai" style="shape=parallelogram;perimeter=parallelogramPerimeter;whiteSpace=wrap;html=1;fixedSize=1;" parent="WIyWlLk6GJQsqaUBKTNV-1" vertex="1">
          <mxGeometry x="30" y="2020" width="120" height="60" as="geometry" />
        </mxCell>
        <mxCell id="YEtJsHtN-afF1f-3Utvz-3" value="" style="edgeStyle=orthogonalEdgeStyle;rounded=0;orthogonalLoop=1;jettySize=auto;html=1;" edge="1" parent="WIyWlLk6GJQsqaUBKTNV-1" source="YEtJsHtN-afF1f-3Utvz-1" target="YEtJsHtN-afF1f-3Utvz-2">
          <mxGeometry relative="1" as="geometry" />
        </mxCell>
        <mxCell id="YEtJsHtN-afF1f-3Utvz-1" value="&#xa;&lt;div style=&quot;color: rgb(204, 204, 204); background-color: rgb(31, 31, 31); font-family: Consolas, &amp;quot;Courier New&amp;quot;, monospace; font-weight: normal; font-size: 14px; line-height: 19px;&quot;&gt;&lt;div&gt;&lt;span style=&quot;color: #9cdcfe;&quot;&gt;updateIndex&lt;/span&gt;&lt;/div&gt;&lt;/div&gt;&#xa;&#xa;" style="shape=parallelogram;perimeter=parallelogramPerimeter;whiteSpace=wrap;html=1;fixedSize=1;" vertex="1" parent="WIyWlLk6GJQsqaUBKTNV-1">
          <mxGeometry x="210" y="890" width="120" height="60" as="geometry" />
        </mxCell>
        <mxCell id="YEtJsHtN-afF1f-3Utvz-5" style="edgeStyle=orthogonalEdgeStyle;rounded=0;orthogonalLoop=1;jettySize=auto;html=1;" edge="1" parent="WIyWlLk6GJQsqaUBKTNV-1" source="YEtJsHtN-afF1f-3Utvz-2">
          <mxGeometry relative="1" as="geometry">
            <mxPoint x="680" y="920" as="targetPoint" />
          </mxGeometry>
        </mxCell>
        <mxCell id="YEtJsHtN-afF1f-3Utvz-2" value="&#xa;&lt;div style=&quot;color: rgb(204, 204, 204); background-color: rgb(31, 31, 31); font-family: Consolas, &amp;quot;Courier New&amp;quot;, monospace; font-weight: normal; font-size: 14px; line-height: 19px;&quot;&gt;&lt;div&gt;&lt;span style=&quot;color: #cccccc;&quot;&gt;&amp;nbsp; &amp;nbsp; &amp;nbsp; &amp;nbsp; &amp;nbsp; &amp;nbsp; &amp;nbsp; &amp;nbsp; &lt;/span&gt;&lt;span style=&quot;color: #dcdcaa;&quot;&gt;input&lt;/span&gt;&lt;span style=&quot;color: #cccccc;&quot;&gt;(&lt;/span&gt;&lt;span style=&quot;color: #d4d4d4;&quot;&gt;&amp;amp;&lt;/span&gt;&lt;span style=&quot;color: #9cdcfe;&quot;&gt;student&lt;/span&gt;&lt;span style=&quot;color: #cccccc;&quot;&gt;,&lt;/span&gt;&lt;span style=&quot;color: #9cdcfe;&quot;&gt;updateIndex&lt;/span&gt;&lt;span style=&quot;color: #cccccc;&quot;&gt;);&lt;/span&gt;&lt;/div&gt;&lt;/div&gt;&#xa;&#xa;" style="whiteSpace=wrap;html=1;" vertex="1" parent="WIyWlLk6GJQsqaUBKTNV-1">
          <mxGeometry x="380" y="885" width="200" height="70" as="geometry" />
        </mxCell>
        <mxCell id="YEtJsHtN-afF1f-3Utvz-15" value="" style="edgeStyle=orthogonalEdgeStyle;rounded=0;orthogonalLoop=1;jettySize=auto;html=1;" edge="1" parent="WIyWlLk6GJQsqaUBKTNV-1" source="YEtJsHtN-afF1f-3Utvz-6" target="YEtJsHtN-afF1f-3Utvz-14">
          <mxGeometry relative="1" as="geometry" />
        </mxCell>
        <mxCell id="YEtJsHtN-afF1f-3Utvz-6" value="&#xa;&lt;div style=&quot;color: rgb(204, 204, 204); background-color: rgb(31, 31, 31); font-family: Consolas, &amp;quot;Courier New&amp;quot;, monospace; font-weight: normal; font-size: 14px; line-height: 19px;&quot;&gt;&lt;div&gt;&lt;span style=&quot;color: #9cdcfe;&quot;&gt;index&lt;/span&gt;&lt;/div&gt;&lt;/div&gt;&#xa;&#xa;" style="shape=parallelogram;perimeter=parallelogramPerimeter;whiteSpace=wrap;html=1;fixedSize=1;" vertex="1" parent="WIyWlLk6GJQsqaUBKTNV-1">
          <mxGeometry x="150" y="1050" width="120" height="60" as="geometry" />
        </mxCell>
        <mxCell id="YEtJsHtN-afF1f-3Utvz-9" value="" style="edgeStyle=orthogonalEdgeStyle;rounded=0;orthogonalLoop=1;jettySize=auto;html=1;" edge="1" parent="WIyWlLk6GJQsqaUBKTNV-1" source="YEtJsHtN-afF1f-3Utvz-7" target="YEtJsHtN-afF1f-3Utvz-8">
          <mxGeometry relative="1" as="geometry" />
        </mxCell>
        <mxCell id="YEtJsHtN-afF1f-3Utvz-7" value="start" style="ellipse;whiteSpace=wrap;html=1;" vertex="1" parent="WIyWlLk6GJQsqaUBKTNV-1">
          <mxGeometry x="120" y="-350" width="120" height="80" as="geometry" />
        </mxCell>
        <mxCell id="YEtJsHtN-afF1f-3Utvz-11" value="" style="edgeStyle=orthogonalEdgeStyle;rounded=0;orthogonalLoop=1;jettySize=auto;html=1;" edge="1" parent="WIyWlLk6GJQsqaUBKTNV-1" source="YEtJsHtN-afF1f-3Utvz-8" target="YEtJsHtN-afF1f-3Utvz-10">
          <mxGeometry relative="1" as="geometry" />
        </mxCell>
        <mxCell id="YEtJsHtN-afF1f-3Utvz-8" value="&#xa;&lt;div style=&quot;color: rgb(204, 204, 204); background-color: rgb(31, 31, 31); font-family: Consolas, &amp;quot;Courier New&amp;quot;, monospace; font-weight: normal; font-size: 14px; line-height: 19px;&quot;&gt;&lt;div&gt;&lt;span style=&quot;color: #dcdcaa;&quot;&gt;delete&lt;/span&gt;&lt;span style=&quot;color: #cccccc;&quot;&gt;(&lt;/span&gt;&lt;span style=&quot;color: #4ec9b0;&quot;&gt;sv&lt;/span&gt;&lt;span style=&quot;color: #cccccc;&quot;&gt; &lt;/span&gt;&lt;span style=&quot;color: #d4d4d4;&quot;&gt;*&lt;/span&gt;&lt;span style=&quot;color: #9cdcfe;&quot;&gt;a&lt;/span&gt;&lt;span style=&quot;color: #cccccc;&quot;&gt;, &lt;/span&gt;&lt;span style=&quot;color: #569cd6;&quot;&gt;int&lt;/span&gt;&lt;span style=&quot;color: #cccccc;&quot;&gt; &lt;/span&gt;&lt;span style=&quot;color: #9cdcfe;&quot;&gt;j&lt;/span&gt;&lt;span style=&quot;color: #cccccc;&quot;&gt;, &lt;/span&gt;&lt;span style=&quot;color: #569cd6;&quot;&gt;int&lt;/span&gt;&lt;span style=&quot;color: #cccccc;&quot;&gt; &lt;/span&gt;&lt;span style=&quot;color: #9cdcfe;&quot;&gt;count&lt;/span&gt;&lt;span style=&quot;color: #cccccc;&quot;&gt;)&lt;/span&gt;&lt;/div&gt;&lt;/div&gt;&#xa;&#xa;" style="whiteSpace=wrap;html=1;" vertex="1" parent="WIyWlLk6GJQsqaUBKTNV-1">
          <mxGeometry x="320" y="-340" width="230" height="70" as="geometry" />
        </mxCell>
        <mxCell id="YEtJsHtN-afF1f-3Utvz-10" value="&#xa;&lt;div style=&quot;color: rgb(204, 204, 204); background-color: rgb(31, 31, 31); font-family: Consolas, &amp;quot;Courier New&amp;quot;, monospace; font-weight: normal; font-size: 14px; line-height: 19px;&quot;&gt;&lt;div&gt;&lt;span style=&quot;color: #cccccc;&quot;&gt;&amp;nbsp;&lt;/span&gt;&lt;span style=&quot;color: #c586c0;&quot;&gt;for&lt;/span&gt;&lt;span style=&quot;color: #cccccc;&quot;&gt; (&lt;/span&gt;&lt;span style=&quot;color: #569cd6;&quot;&gt;int&lt;/span&gt;&lt;span style=&quot;color: #cccccc;&quot;&gt; &lt;/span&gt;&lt;span style=&quot;color: #9cdcfe;&quot;&gt;i&lt;/span&gt;&lt;span style=&quot;color: #cccccc;&quot;&gt; &lt;/span&gt;&lt;span style=&quot;color: #d4d4d4;&quot;&gt;=&lt;/span&gt;&lt;span style=&quot;color: #cccccc;&quot;&gt; &lt;/span&gt;&lt;span style=&quot;color: #9cdcfe;&quot;&gt;j&lt;/span&gt;&lt;span style=&quot;color: #cccccc;&quot;&gt;; &lt;/span&gt;&lt;span style=&quot;color: #9cdcfe;&quot;&gt;i&lt;/span&gt;&lt;span style=&quot;color: #cccccc;&quot;&gt; &lt;/span&gt;&lt;span style=&quot;color: #d4d4d4;&quot;&gt;&amp;lt;&lt;/span&gt;&lt;span style=&quot;color: #cccccc;&quot;&gt; &lt;/span&gt;&lt;span style=&quot;color: #9cdcfe;&quot;&gt;count&lt;/span&gt;&lt;span style=&quot;color: #cccccc;&quot;&gt;; &lt;/span&gt;&lt;span style=&quot;color: #9cdcfe;&quot;&gt;i&lt;/span&gt;&lt;span style=&quot;color: #d4d4d4;&quot;&gt;++&lt;/span&gt;&lt;span style=&quot;color: #cccccc;&quot;&gt;)&lt;/span&gt;&lt;/div&gt;&lt;div&gt;&lt;span style=&quot;color: #cccccc;&quot;&gt;&amp;nbsp; &amp;nbsp; {&lt;/span&gt;&lt;/div&gt;&lt;div&gt;&lt;span style=&quot;color: #cccccc;&quot;&gt;&amp;nbsp; &amp;nbsp; &amp;nbsp; &amp;nbsp; &lt;/span&gt;&lt;span style=&quot;color: #d4d4d4;&quot;&gt;*&lt;/span&gt;&lt;span style=&quot;color: #cccccc;&quot;&gt;(&lt;/span&gt;&lt;span style=&quot;color: #9cdcfe;&quot;&gt;a&lt;/span&gt;&lt;span style=&quot;color: #cccccc;&quot;&gt; &lt;/span&gt;&lt;span style=&quot;color: #d4d4d4;&quot;&gt;+&lt;/span&gt;&lt;span style=&quot;color: #cccccc;&quot;&gt; &lt;/span&gt;&lt;span style=&quot;color: #9cdcfe;&quot;&gt;i&lt;/span&gt;&lt;span style=&quot;color: #cccccc;&quot;&gt;) &lt;/span&gt;&lt;span style=&quot;color: #d4d4d4;&quot;&gt;=&lt;/span&gt;&lt;span style=&quot;color: #cccccc;&quot;&gt; &lt;/span&gt;&lt;span style=&quot;color: #d4d4d4;&quot;&gt;*&lt;/span&gt;&lt;span style=&quot;color: #cccccc;&quot;&gt;(&lt;/span&gt;&lt;span style=&quot;color: #9cdcfe;&quot;&gt;a&lt;/span&gt;&lt;span style=&quot;color: #cccccc;&quot;&gt; &lt;/span&gt;&lt;span style=&quot;color: #d4d4d4;&quot;&gt;+&lt;/span&gt;&lt;span style=&quot;color: #cccccc;&quot;&gt; &lt;/span&gt;&lt;span style=&quot;color: #9cdcfe;&quot;&gt;i&lt;/span&gt;&lt;span style=&quot;color: #cccccc;&quot;&gt; &lt;/span&gt;&lt;span style=&quot;color: #d4d4d4;&quot;&gt;+&lt;/span&gt;&lt;span style=&quot;color: #cccccc;&quot;&gt; &lt;/span&gt;&lt;span style=&quot;color: #b5cea8;&quot;&gt;1&lt;/span&gt;&lt;span style=&quot;color: #cccccc;&quot;&gt;);&lt;/span&gt;&lt;/div&gt;&lt;div&gt;&lt;span style=&quot;color: #cccccc;&quot;&gt;&amp;nbsp; &amp;nbsp; }&lt;/span&gt;&lt;/div&gt;&lt;/div&gt;&#xa;&#xa;" style="whiteSpace=wrap;html=1;" vertex="1" parent="WIyWlLk6GJQsqaUBKTNV-1">
          <mxGeometry x="670" y="-347.5" width="405" height="85" as="geometry" />
        </mxCell>
        <mxCell id="YEtJsHtN-afF1f-3Utvz-12" value="&lt;br&gt;&lt;div style=&quot;color: rgb(204, 204, 204); background-color: rgb(31, 31, 31); font-family: Consolas, &amp;quot;Courier New&amp;quot;, monospace; font-weight: normal; font-size: 14px; line-height: 19px;&quot;&gt;&lt;div&gt;&lt;span style=&quot;color: #cccccc;&quot;&gt;&amp;nbsp; &amp;nbsp; &lt;/span&gt;&lt;span style=&quot;color: #cccccc;&quot;&gt;(&lt;/span&gt;&lt;span style=&quot;color: #9cdcfe;&quot;&gt;a&lt;/span&gt;&lt;span style=&quot;color: #cccccc;&quot;&gt; &lt;/span&gt;&lt;span style=&quot;color: #d4d4d4;&quot;&gt;+&lt;/span&gt;&lt;span style=&quot;color: #cccccc;&quot;&gt; &lt;/span&gt;&lt;span style=&quot;color: #9cdcfe;&quot;&gt;i&lt;/span&gt;&lt;span style=&quot;color: #cccccc;&quot;&gt;)-&amp;gt;&lt;/span&gt;&lt;span style=&quot;color: #9cdcfe;&quot;&gt;name&lt;/span&gt;&lt;span style=&quot;color: #cccccc;&quot;&gt;;&lt;/span&gt;&lt;/div&gt;&lt;div&gt;&lt;div style=&quot;line-height: 19px;&quot;&gt;&amp;nbsp; &amp;nbsp; &amp;nbsp;&lt;span style=&quot;color: #d4d4d4;&quot;&gt;&amp;amp;&lt;/span&gt;((&lt;span style=&quot;color: #9cdcfe;&quot;&gt;a&lt;/span&gt; &lt;span style=&quot;color: #d4d4d4;&quot;&gt;+&lt;/span&gt; &lt;span style=&quot;color: #9cdcfe;&quot;&gt;i&lt;/span&gt;)-&amp;gt;&lt;span style=&quot;color: #9cdcfe;&quot;&gt;old&lt;/span&gt;));&lt;/div&gt;&lt;/div&gt;&lt;div style=&quot;line-height: 19px;&quot;&gt;&lt;div style=&quot;line-height: 19px;&quot;&gt;&amp;nbsp; &amp;nbsp;&amp;nbsp;&lt;span style=&quot;color: #d4d4d4;&quot;&gt;&amp;amp;&lt;/span&gt;((&lt;span style=&quot;color: #9cdcfe;&quot;&gt;a&lt;/span&gt; &lt;span style=&quot;color: #d4d4d4;&quot;&gt;+&lt;/span&gt; &lt;span style=&quot;color: #9cdcfe;&quot;&gt;i&lt;/span&gt;)-&amp;gt;&lt;span style=&quot;color: #9cdcfe;&quot;&gt;phoneNumber&lt;/span&gt;));&lt;/div&gt;&lt;div style=&quot;line-height: 19px;&quot;&gt;&lt;div style=&quot;line-height: 19px;&quot;&gt;&amp;nbsp; &amp;nbsp; (&lt;span style=&quot;color: #9cdcfe;&quot;&gt;a&lt;/span&gt; &lt;span style=&quot;color: #d4d4d4;&quot;&gt;+&lt;/span&gt; &lt;span style=&quot;color: #9cdcfe;&quot;&gt;i&lt;/span&gt;)-&amp;gt;&lt;span style=&quot;color: #9cdcfe;&quot;&gt;email&lt;/span&gt;;&lt;/div&gt;&lt;/div&gt;&lt;/div&gt;&lt;/div&gt;&lt;br&gt;" style="shape=parallelogram;perimeter=parallelogramPerimeter;whiteSpace=wrap;html=1;fixedSize=1;" vertex="1" parent="WIyWlLk6GJQsqaUBKTNV-1">
          <mxGeometry x="750" y="-15" width="330" height="110" as="geometry" />
        </mxCell>
        <mxCell id="YEtJsHtN-afF1f-3Utvz-13" value="&lt;br&gt;&lt;div style=&quot;color: rgb(204, 204, 204); background-color: rgb(31, 31, 31); font-family: Consolas, &amp;quot;Courier New&amp;quot;, monospace; font-weight: normal; font-size: 14px; line-height: 19px;&quot;&gt;&lt;div&gt;&lt;span style=&quot;color: #cccccc;&quot;&gt;&amp;nbsp; &amp;nbsp; &lt;/span&gt;&lt;span style=&quot;color: #cccccc;&quot;&gt;(&lt;/span&gt;&lt;span style=&quot;color: #9cdcfe;&quot;&gt;a&lt;/span&gt;&lt;span style=&quot;color: #cccccc;&quot;&gt; &lt;/span&gt;&lt;span style=&quot;color: #d4d4d4;&quot;&gt;+&lt;/span&gt;&lt;span style=&quot;color: #cccccc;&quot;&gt; &lt;/span&gt;&lt;span style=&quot;color: #9cdcfe;&quot;&gt;i&lt;/span&gt;&lt;span style=&quot;color: #cccccc;&quot;&gt;)-&amp;gt;&lt;/span&gt;&lt;span style=&quot;color: #9cdcfe;&quot;&gt;name&lt;/span&gt;&lt;span style=&quot;color: #cccccc;&quot;&gt;;&lt;/span&gt;&lt;/div&gt;&lt;div&gt;&lt;div style=&quot;line-height: 19px;&quot;&gt;&amp;nbsp; &amp;nbsp; &amp;nbsp;&lt;span style=&quot;color: #d4d4d4;&quot;&gt;&amp;amp;&lt;/span&gt;((&lt;span style=&quot;color: #9cdcfe;&quot;&gt;a&lt;/span&gt; &lt;span style=&quot;color: #d4d4d4;&quot;&gt;+&lt;/span&gt; &lt;span style=&quot;color: #9cdcfe;&quot;&gt;i&lt;/span&gt;)-&amp;gt;&lt;span style=&quot;color: #9cdcfe;&quot;&gt;old&lt;/span&gt;));&lt;/div&gt;&lt;/div&gt;&lt;div style=&quot;line-height: 19px;&quot;&gt;&lt;div style=&quot;line-height: 19px;&quot;&gt;&amp;nbsp; &amp;nbsp;&amp;nbsp;&lt;span style=&quot;color: #d4d4d4;&quot;&gt;&amp;amp;&lt;/span&gt;((&lt;span style=&quot;color: #9cdcfe;&quot;&gt;a&lt;/span&gt; &lt;span style=&quot;color: #d4d4d4;&quot;&gt;+&lt;/span&gt; &lt;span style=&quot;color: #9cdcfe;&quot;&gt;i&lt;/span&gt;)-&amp;gt;&lt;span style=&quot;color: #9cdcfe;&quot;&gt;phoneNumber&lt;/span&gt;));&lt;/div&gt;&lt;div style=&quot;line-height: 19px;&quot;&gt;&lt;div style=&quot;line-height: 19px;&quot;&gt;&amp;nbsp; &amp;nbsp; (&lt;span style=&quot;color: #9cdcfe;&quot;&gt;a&lt;/span&gt; &lt;span style=&quot;color: #d4d4d4;&quot;&gt;+&lt;/span&gt; &lt;span style=&quot;color: #9cdcfe;&quot;&gt;i&lt;/span&gt;)-&amp;gt;&lt;span style=&quot;color: #9cdcfe;&quot;&gt;email&lt;/span&gt;;&lt;/div&gt;&lt;/div&gt;&lt;/div&gt;&lt;/div&gt;&lt;br&gt;" style="shape=parallelogram;perimeter=parallelogramPerimeter;whiteSpace=wrap;html=1;fixedSize=1;" vertex="1" parent="WIyWlLk6GJQsqaUBKTNV-1">
          <mxGeometry x="690" y="145" width="330" height="110" as="geometry" />
        </mxCell>
        <mxCell id="YEtJsHtN-afF1f-3Utvz-16" style="edgeStyle=orthogonalEdgeStyle;rounded=0;orthogonalLoop=1;jettySize=auto;html=1;" edge="1" parent="WIyWlLk6GJQsqaUBKTNV-1" source="YEtJsHtN-afF1f-3Utvz-14">
          <mxGeometry relative="1" as="geometry">
            <mxPoint x="680" y="1079.9999999999995" as="targetPoint" />
          </mxGeometry>
        </mxCell>
        <mxCell id="YEtJsHtN-afF1f-3Utvz-14" value="&lt;br&gt;&lt;div style=&quot;color: rgb(204, 204, 204); background-color: rgb(31, 31, 31); font-family: Consolas, &amp;quot;Courier New&amp;quot;, monospace; font-weight: normal; font-size: 14px; line-height: 19px;&quot;&gt;&lt;div&gt;&lt;span style=&quot;color: #dcdcaa;&quot;&gt;delete&lt;/span&gt;&lt;span style=&quot;color: #cccccc;&quot;&gt; (&lt;/span&gt;&lt;span style=&quot;color: #9cdcfe;&quot;&gt;student&lt;/span&gt;&lt;span style=&quot;color: #cccccc;&quot;&gt;, &lt;/span&gt;&lt;span style=&quot;color: #9cdcfe;&quot;&gt;index&lt;/span&gt;&lt;span style=&quot;color: #cccccc;&quot;&gt;, &lt;/span&gt;&lt;span style=&quot;color: #9cdcfe;&quot;&gt;currentIndex&lt;/span&gt;&lt;span style=&quot;color: #cccccc;&quot;&gt;);&lt;/span&gt;&lt;/div&gt;&lt;div&gt;&lt;span style=&quot;color: #cccccc;&quot;&gt;&amp;nbsp;&lt;/span&gt;&lt;span style=&quot;color: #9cdcfe;&quot;&gt;currentIndex&lt;/span&gt;&lt;span style=&quot;color: #d4d4d4;&quot;&gt;--&lt;/span&gt;&lt;span style=&quot;color: #cccccc;&quot;&gt;;&lt;/span&gt;&lt;/div&gt;&lt;/div&gt;&lt;br&gt;" style="whiteSpace=wrap;html=1;" vertex="1" parent="WIyWlLk6GJQsqaUBKTNV-1">
          <mxGeometry x="280" y="1040" width="310" height="80" as="geometry" />
        </mxCell>
        <mxCell id="YEtJsHtN-afF1f-3Utvz-20" style="edgeStyle=orthogonalEdgeStyle;rounded=0;orthogonalLoop=1;jettySize=auto;html=1;" edge="1" parent="WIyWlLk6GJQsqaUBKTNV-1" source="YEtJsHtN-afF1f-3Utvz-19">
          <mxGeometry relative="1" as="geometry">
            <mxPoint x="680" y="1419.9999999999995" as="targetPoint" />
          </mxGeometry>
        </mxCell>
        <mxCell id="YEtJsHtN-afF1f-3Utvz-19" value="&#xa;&lt;div style=&quot;color: rgb(204, 204, 204); background-color: rgb(31, 31, 31); font-family: Consolas, &amp;quot;Courier New&amp;quot;, monospace; font-weight: normal; font-size: 14px; line-height: 19px;&quot;&gt;&lt;div&gt;&lt;span style=&quot;color: #cccccc;&quot;&gt;&amp;nbsp; &amp;nbsp; &amp;nbsp; &amp;nbsp; &amp;nbsp; &amp;nbsp; &lt;/span&gt;&lt;span style=&quot;color: #dcdcaa;&quot;&gt;output&lt;/span&gt;&lt;span style=&quot;color: #cccccc;&quot;&gt;(&lt;/span&gt;&lt;span style=&quot;color: #9cdcfe;&quot;&gt;student&lt;/span&gt;&lt;span style=&quot;color: #cccccc;&quot;&gt;,&lt;/span&gt;&lt;span style=&quot;color: #9cdcfe;&quot;&gt;i&lt;/span&gt;&lt;span style=&quot;color: #cccccc;&quot;&gt;);&lt;/span&gt;&lt;/div&gt;&lt;/div&gt;&#xa;&#xa;" style="shape=parallelogram;perimeter=parallelogramPerimeter;whiteSpace=wrap;html=1;fixedSize=1;" vertex="1" parent="WIyWlLk6GJQsqaUBKTNV-1">
          <mxGeometry x="270" y="1380" width="200" height="80" as="geometry" />
        </mxCell>
      </root>
    </mxGraphModel>
  </diagram>
</mxfile>
